# xmcd CD database file
#
# Track frame offsets:
#	150
#	27732
#	46071
#	67513
#	94830
#	115909
#	149912
#	188559
#	217191
#	245243
#	258145
#	259339
#
# Disc length: 3884 seconds
#
# Revision: 0
# Processed by: cddbd v1.4PL0 Copyright (c) Steve Scherf et al.
# Submitted via: CDex 1.50beta10
#
DISCID=b60f2a0c
DTITLE=Stoney Curtis Band - Alive and Unleashed
DYEAR=2001
DGENRE=Blues
TTITLE0=Mulholland Shuffle
TTITLE1=Evil Woman
TTITLE2=Around the World
TTITLE3=Soul Love
TTITLE4=Legend
TTITLE5=People Rise Up
TTITLE6=Straighten It Out
TTITLE7=Free
TTITLE8=Thrill Is Gone
TTITLE9=Baby Needs Lovin
TTITLE10="Get the Phone"
TTITLE11=Who Knows
EXTD=YEAR: 2001
EXTT0=
EXTT1=
EXTT2=
EXTT3=
EXTT4=
EXTT5=
EXTT6=
EXTT7=
EXTT8=
EXTT9=
EXTT10=
EXTT11=
PLAYORDER=
